# xmcd CD database file
#
# Track frame offsets:
#	150
#	10403
#	21083
#	32248
#	44812
#	58328
#	71703
#	83232
#	96263
#	109866
#	121023
#	137511
#	149400
#	159461
#	175160
#	186665
#	202312
#
# Disc length: 2871 seconds
#
# Revision: 0
# Processed by: cddbd v1.5.1PL0 Copyright (c) Steve Scherf et al.
# Submitted via: CDex 1.50beta10
#
DISCID=040b3511
DTITLE=Charlie Pride - Latest and Greatest
DYEAR=1997
DGENRE=Country
TTITLE0=Just Between You and Me
TTITLE1=I Know One
TTITLE2=Does My Ring Hurt Your Finger
TTITLE3=Kaw-Liga
TTITLE4=All I Have To Offer You Is Me
TTITLE5=I'm So Afraid Of Losing You Again
TTITLE6=I'm Just Me
TTITLE7=She's Too Good To Be True
TTITLE8=Amazing Love
TTITLE9=Mississippi Cotton Picking Delta Dawn
TTITLE10=Walls
TTITLE11=She's Just An Old Love
TTITLE12=Someone Loves You Honey
TTITLE13=Burgers And Fries
TTITLE14=Missin' You
TTITLE15=Hello Love
TTITLE16=Mountain Love
EXTD=YEAR: 1997
EXTT0=
EXTT1=
EXTT2=
EXTT3=
EXTT4=
EXTT5=
EXTT6=
EXTT7=
EXTT8=
EXTT9=
EXTT10=
EXTT11=
EXTT12=
EXTT13=
EXTT14=
EXTT15=
EXTT16=
PLAYORDER=
